<svg width="24" height="24" viewBox="0 0 24 24" fill="none" xmlns="http://www.w3.org/2000/svg">
<path d="M5 21C4.45 21 3.979 20.8043 3.587 20.413C3.19567 20.021 3 19.55 3 19V5C3 4.45 3.19567 3.979 3.587 3.587C3.979 3.19567 4.45 3 5 3H13C13.2833 3 13.521 3.09567 13.713 3.287C13.9043 3.479 14 3.71667 14 4C14 4.28333 13.9043 4.52067 13.713 4.712C13.521 4.904 13.2833 5 13 5H5V19H19V11C19 10.7167 19.096 10.479 19.288 10.287C19.4793 10.0957 19.7167 10 20 10C20.2833 10 20.5207 10.0957 20.712 10.287C20.904 10.479 21 10.7167 21 11V19C21 19.55 20.8043 20.021 20.413 20.413C20.021 20.8043 19.55 21 19 21H5ZM18 9C17.7167 9 17.4793 8.904 17.288 8.712C17.096 8.52067 17 8.28333 17 8V7H16C15.7167 7 15.4793 6.90433 15.288 6.713C15.096 6.521 15 6.28333 15 6C15 5.71667 15.096 5.479 15.288 5.287C15.4793 5.09567 15.7167 5 16 5H17V4C17 3.71667 17.096 3.479 17.288 3.287C17.4793 3.09567 17.7167 3 18 3C18.2833 3 18.5207 3.09567 18.712 3.287C18.904 3.479 19 3.71667 19 4V5H20C20.2833 5 20.5207 5.09567 20.712 5.287C20.904 5.479 21 5.71667 21 6C21 6.28333 20.904 6.521 20.712 6.713C20.5207 6.90433 20.2833 7 20 7H19V8C19 8.28333 18.904 8.52067 18.712 8.712C18.5207 8.904 18.2833 9 18 9ZM7 17H17C17.2 17 17.35 16.9083 17.45 16.725C17.55 16.5417 17.5333 16.3667 17.4 16.2L14.65 12.525C14.55 12.3917 14.4167 12.325 14.25 12.325C14.0833 12.325 13.95 12.3917 13.85 12.525L11.25 16L9.4 13.525C9.3 13.3917 9.16667 13.325 9 13.325C8.83333 13.325 8.7 13.3917 8.6 13.525L6.6 16.2C6.46667 16.3667 6.45 16.5417 6.55 16.725C6.65 16.9083 6.8 17 7 17ZM5 11V19V5V11Z" fill="white"/>
</svg>
