<svg width="14" height="14" viewBox="0 0 14 14" fill="none" xmlns="http://www.w3.org/2000/svg">
<path d="M6.9998 8.40078L2.0998 13.3008C1.91647 13.4841 1.68314 13.5758 1.3998 13.5758C1.11647 13.5758 0.883138 13.4841 0.699804 13.3008C0.516471 13.1174 0.424805 12.8841 0.424805 12.6008C0.424805 12.3174 0.516471 12.0841 0.699804 11.9008L5.5998 7.00078L0.699804 2.10078C0.516471 1.91745 0.424805 1.68411 0.424805 1.40078C0.424805 1.11745 0.516471 0.884114 0.699804 0.700781C0.883138 0.517448 1.11647 0.425781 1.3998 0.425781C1.68314 0.425781 1.91647 0.517448 2.0998 0.700781L6.9998 5.60078L11.8998 0.700781C12.0831 0.517448 12.3165 0.425781 12.5998 0.425781C12.8831 0.425781 13.1165 0.517448 13.2998 0.700781C13.4831 0.884114 13.5748 1.11745 13.5748 1.40078C13.5748 1.68411 13.4831 1.91745 13.2998 2.10078L8.3998 7.00078L13.2998 11.9008C13.4831 12.0841 13.5748 12.3174 13.5748 12.6008C13.5748 12.8841 13.4831 13.1174 13.2998 13.3008C13.1165 13.4841 12.8831 13.5758 12.5998 13.5758C12.3165 13.5758 12.0831 13.4841 11.8998 13.3008L6.9998 8.40078Z" fill="white" fill-opacity="0.87"/>
</svg>
